<?xml version="1.0" encoding="UTF-8" standalone="no"?>
<!-- Created with Inkscape (http://www.inkscape.org/) -->

<svg
   width="675.49152"
   height="408.91022"
   viewBox="0 0 675.49152 408.91022"
   version="1.1"
   id="svg1"
   xml:space="preserve"
   inkscape:version="1.3.2 (091e20e, 2023-11-25, custom)"
   sodipodi:docname="PastaBarVector.svg"
   inkscape:export-filename="PastaBarVector.png"
   inkscape:export-xdpi="50"
   inkscape:export-ydpi="50"
   xmlns:inkscape="http://www.inkscape.org/namespaces/inkscape"
   xmlns:sodipodi="http://sodipodi.sourceforge.net/DTD/sodipodi-0.dtd"
   xmlns="http://www.w3.org/2000/svg"
   xmlns:svg="http://www.w3.org/2000/svg"><sodipodi:namedview
     id="namedview1"
     pagecolor="#ffffff"
     bordercolor="#000000"
     borderopacity="0.25"
     inkscape:showpageshadow="2"
     inkscape:pageopacity="0.0"
     inkscape:pagecheckerboard="0"
     inkscape:deskcolor="#d1d1d1"
     inkscape:document-units="px"
     inkscape:zoom="0.51445126"
     inkscape:cx="959.27455"
     inkscape:cy="541.35352"
     inkscape:window-width="1920"
     inkscape:window-height="1017"
     inkscape:window-x="1672"
     inkscape:window-y="-8"
     inkscape:window-maximized="1"
     inkscape:current-layer="layer3" /><defs
     id="defs1" /><rect
     style="display:none;fill:#000000;stroke-width:21.8003;stroke-linejoin:round"
     id="rect1"
     width="1677.5156"
     height="1078.8195"
     x="-507.01181"
     y="-230.32721"
     inkscape:label="BG"
     sodipodi:insensitive="true" /><g
     inkscape:label="PastaBarVector"
     inkscape:groupmode="layer"
     id="layer1"
     style="display:inline"
     transform="translate(-648.91058,-230.32721)"><g
       id="g1"
       transform="translate(981.62846,153.56168)"><g
         id="g8"><path
           style="display:inline;fill:#ffffff;fill-opacity:1"
           d="m -234.02881,457.15712 c -6.15434,-5.38367 -6.2054,-5.7622 -3.22318,-23.89159 8.50265,-51.6889 29.26597,-118.39398 49.41085,-158.73927 4.27888,-8.56955 5.69059,-10.51611 8.6306,-11.90045 5.21305,-2.45464 8.36899,-2.69146 8.77361,-0.65838 0.18629,0.93605 -3.34639,9.26105 -7.8504,18.5 -9.89534,20.29806 -13.46637,27.98907 -15.32316,33.00188 -12.95808,34.98311 -20.8775,58.36791 -20.0477,59.19771 0.65646,0.65645 2.14615,-0.26008 16.99738,-10.45768 39.09652,-26.84563 76.5647,-74.14397 84.92138,-107.20141 4.50251,-17.8111 4.06651,-30.24543 -1.5752,-44.92337 -5.84646,-15.21062 -17.45964,-24.54949 -34.77575,-27.96532 -10.87876,-2.14598 -18.98486,-1.1737 -35.09455,4.20939 -20.44955,6.83325 -38.73194,17.17628 -59.04141,33.40192 -7.80306,6.23402 -25.91326,23.82688 -32.73195,31.79692 -39.22188,45.8446 -54.80501,95.62676 -37.22316,118.91375 14.48807,19.18933 36.94831,12.41171 56.91826,-17.17569 5.43291,-8.04939 10.39909,-18.31745 15.03133,-31.0788 1.78106,-4.90666 3.60547,-9.8212 4.05423,-10.9212 0.80369,-1.97 1.57409,11.793 1.09154,19.5 -0.29864,4.76963 -4.57533,17.50865 -8.77486,26.13774 -8.0067,16.45198 -17.28679,26.34691 -30.8808,32.9268 -6.998,3.38722 -9.61876,4.10907 -16.64516,4.58464 -7.0411,0.47657 -9.23412,0.22545 -14.0861,-1.61296 -10.03283,-3.80145 -19.88927,-14.86782 -24.08023,-27.03622 -8.60708,-24.99055 0.68945,-63.48073 23.66994,-98 19.92304,-29.92663 42.60626,-52.38401 73.88254,-73.14693 17.47557,-11.60125 30.15544,-17.14117 52.21276,-22.81212 11.96798,-3.07697 34.75441,-2.4559 39.15367,1.06718 0.6006,0.48099 1.32973,0.6368 1.62027,0.34625 0.29055,-0.29054 4.07415,1.15789 8.408,3.21875 11.32833,5.38692 18.71348,13.11572 25.33357,26.51238 19.416555,39.29209 3.49101,86.29542 -46.86336,138.31449 -4.79159,4.95 -12.50965,12.375 -17.15124,16.5 -4.64158,4.125 -8.88925,8.02999 -9.43925,8.67776 -2.044,2.40732 -17.33766,13.13472 -27.5,19.28925 -5.775,3.49746 -11.04153,6.84817 -11.7034,7.44601 -1.22082,1.10271 -2.09845,4.01614 -7.40648,24.58698 -2.72571,10.56325 -2.95667,12.78892 -2.83544,27.32334 0.0726,8.70283 -0.0461,16.00144 -0.26381,16.21913 -0.21769,0.21769 -2.73469,-1.65021 -5.59334,-4.15088 z m 33.11788,-0.43906 c -3.31573,-1.27448 -4.31537,-4.10366 -4.31537,-12.21336 0,-8.63427 4.06783,-24.42049 9.72472,-37.73917 12.47506,-29.37148 38.87511,-52.13296 42.68419,-36.80125 0.77358,3.11367 1.31053,3.64703 3.6059,3.58177 3.43211,-0.0976 4.98519,0.86971 4.98519,3.10488 0,0.97205 -2.52762,8.03299 -5.61694,15.69098 -6.56911,16.28396 -14.38307,41.17014 -14.38307,45.80772 0,1.77851 0.62344,4.08625 1.38542,5.12832 1.33572,1.82671 1.52445,1.83197 5.26172,0.1467 2.13197,-0.96139 5.26758,-3.19048 6.96801,-4.95355 2.55665,-2.65081 3.20164,-4.29383 3.72695,-9.49385 0.76213,-7.5443 4.01778,-15.56303 7.39829,-18.22214 1.35438,-1.06536 3.95061,-2.21618 5.7694,-2.55739 3.00491,-0.56372 3.85774,-1.63912 9.33903,-11.77628 3.31767,-6.13575 7.66858,-14.72034 9.66868,-19.07687 l 3.63655,-7.92097 -2.66439,-5.26607 c -3.0863,-6.09996 -2.78551,-8.29465 1.79857,-13.12316 3.78413,-3.9859 9.12793,-5.99827 11.25048,-4.23672 1.890585,1.56905 1.844285,4.07712 -0.19467,10.54545 -1.54806,4.911 -1.54592,5.3634 0.0329,6.94222 4.919415,4.91942 7.898125,16.21072 7.835965,29.70354 -0.0408,8.84609 -0.67855,11.90918 -4.5343,21.77667 -4.218875,10.79678 -14.564635,23.31181 -22.733825,27.50059 -9.30394,4.77063 -15.80793,4.42472 -22.00071,-1.17009 l -3.83116,-3.46122 -3.73825,4.13778 c -4.47574,4.95411 -10.05686,7.99294 -14.67984,7.99294 -4.65028,0 -7.07099,-2.90941 -7.30447,-8.77911 -0.10178,-2.55885 -0.56875,-4.76723 -1.0377,-4.90751 -0.46895,-0.14027 -1.97764,1.61036 -3.35264,3.8903 -2.91032,4.8257 -10.39567,12.44817 -14,14.25645 -3.6303,1.8213 -8.1768,2.45635 -10.68463,1.4924 z m 10.48429,-8.37407 c 4.08172,-2.14875 11.47262,-10.28072 16.1081,-17.72324 4.43513,-7.12085 15.91544,-40.08081 14.16393,-40.66465 -0.54793,-0.18264 -0.70055,-3.22967 -0.36327,-7.25277 0.41467,-4.94616 0.24723,-6.9378 -0.58327,-6.9378 -1.8517,0 -8.33629,4.4758 -11.79472,8.14097 -7.43586,7.88034 -19.28229,35.40653 -22.87049,53.14151 -1.33582,6.60241 -1.17229,8.89566 0.81774,11.46752 1.2051,1.55745 1.24014,1.55612 4.52198,-0.17154 z m 65.78361,-7.86389 c 9.58798,-5.58987 19.36845,-23.1252 21.67312,-38.85757 0.96444,-6.58356 0.86148,-8.77331 -0.74277,-15.79737 -2.86471,-12.5428 -3.41818,-12.76884 -8.444,-3.44858 -2.3397,4.33893 -8.4818,14.27664 -13.64912,22.08382 -11.55738,17.46176 -13.54376,21.21911 -14.17404,26.81092 -0.43953,3.89944 -0.14987,4.74465 2.55195,7.44647 2.3571,2.35711 3.91495,3.03971 6.87467,3.01231 2.1048,-0.0195 4.76439,-0.58199 5.91019,-1.25 z m 335.58898,3.60559 c 0.3229,-7.56637 0.3716,-7.69154 3.2961,-8.47192 2.0666,-0.55145 3.6567,-0.34108 5.2341,0.69249 6.6809,4.37746 1.7739,15.45927 -6.8453,15.45927 -1.8706,0 -1.9895,-0.54204 -1.6849,-7.67984 z m 7.8277,3.67984 c 2.9698,-2.9698 2.7231,-8.71344 -0.4362,-10.1529 -4.305,-1.96149 -5.5638,-0.57655 -5.5638,6.12152 0,5.36472 0.2211,6.03138 2,6.03138 1.1,0 2.9,-0.9 4,-2 z m 8.2076,-6.12672 0.2924,-8.37328 4,-0.31682 c 4.3684,-0.34601 3.91163,1.26075 -0.5,1.98215 -2.61345,0.42736 -2.71342,4.21318 0.1612,4.33467 1.46229,0.0618 3.0011,0.3375 3.4166,0.75 0.4156,0.4125 -0.1826,0.75 -1.3293,0.75 -3.828,0 -4.7018,1.0023 -4.7018,4.03081 0,2.81649 -0.4015,3.03259 2.9533,2.40321 2.2943,-0.4304 3.5,-0.27376 3.5,0.45469 0,0.61121 -1.0882,1.11129 -2.4182,1.11129 -1.33,0 -3.1491,0.28048 -4.0424,0.62328 -1.4327,0.54978 -1.5898,-0.36393 -1.3318,-7.75 z m 11.9605,-1.50665 c -0.1563,-7.5647 -0.017,-8.17289 1.9936,-8.69865 6.1707,-1.61367 8.42683,6.68163 2.1486,8.33202 -3.13484,0.82407 -0.91278,7.3137 -2.30627,7.49052 -1.38957,0.17632 -1.74343,-2.65053 -1.83593,-7.12389 z m 5.295,-2.97257 c 1.24,-1.23993 0.81171,-2.30772 -0.27993,-3.18223 -1.6547,-1.32558 -2.94477,-1.53815 -3.68027,0.77922 -1.1934,3.75987 1.1696,5.19366 3.9602,2.40301 z m 7.0936,6.38344 c -0.9261,-1.32225 -1.5567,-4.33632 -1.5567,-7.44099 0,-7.86639 1.8572,-7.54349 2.2037,0.38314 0.2716,6.21505 0.4885,6.8076 2.6014,7.10712 3.9466,0.55948 5.1949,-1.47077 5.1949,-8.44921 0,-4.02866 0.4113,-6.37756 1.1165,-6.37756 1.9226,0 0.609,12.54088 -1.5652,14.9434 -2.4365,2.69225 -6.0451,2.61736 -7.9946,-0.1659 z m 14.4433,-7.71848 c 0,-4.52635 0.4242,-8.05902 0.9677,-8.05902 1.1669,0 1.02,14.8896 -0.1541,15.61525 -0.4475,0.27653 -0.8136,-3.12377 -0.8136,-7.55623 z m 5.98,5.41682 c -1.7119,-2.06267 -0.6317,-2.89978 1.7902,-1.3873 2.538,1.58502 5.2298,0.53311 5.2298,-2.04373 0,-1.36103 -1.1394,-2.49404 -3.5,-3.48036 -3.9877,-1.66619 -4.576,-4.28068 -1.5744,-6.99711 2.0038,-1.81341 5.1555,-1.82812 5.7551,-0.0269 0.1905,0.57226 -0.8849,1.02226 -2.3897,1 -3.2501,-0.0481 -4.4833,3.09394 -1.6149,4.11456 2.657,0.94538 5.3239,3.45006 5.3239,4.99996 0,1.97436 -3.7064,5.34501 -5.8775,5.34501 -1.0327,0 -2.4468,-0.68587 -3.1425,-1.52416 z m 24.1817,-9.22584 c 0.0405,-4.84509 -0.31896,-7.45568 -1.05798,-7.12851 -1.78372,0.78968 -3.05935,0.6445 -0.30372,-1.32149 2.46895,-1.76147 2.47303,0.53373 2.53517,8.26074 0,0 -0.33228,7.43191 -1.01177,7.43926 -0.67949,0.007 -0.1617,-7.25 -0.1617,-7.25 z m 11.8701,4.54969 c -0.017,-0.93517 0.7459,-2.13553 1.6964,-2.66746 1.533,-0.85786 1.4221,-1.10663 -0.9807,-2.20145 -4.6567,-2.12173 -4.8463,-7.46957 -0.3501,-9.87587 3.0241,-1.61844 6.2252,-0.60611 6.9593,2.20079 0.5431,2.07701 -1.8735,7.22385 -5.7491,12.2443 -1.3407,1.73667 -1.5481,1.77613 -1.5758,0.29969 z m 5.0101,-8.87783 c 1.4984,-2.79978 0.5197,-4.92186 -2.2699,-4.92186 -2.9933,0 -5.3692,3.57542 -3.7069,5.57836 1.7159,2.06762 4.6939,1.74051 5.9768,-0.6565 z m -401.516175,6.1278 c -2.89768,-5.6035 -1.15357,-24.31516 3.97137,-42.60672 2.20118,-7.85632 17.47545,-53.44754 18.66553,-55.7136 0.51145,-0.97387 0.70454,-2.13533 0.42908,-2.58102 -0.27545,-0.4457 -5.43342,-0.0138 -11.46214,0.95982 -6.02872,0.9736 -12.91166,2.04512 -15.29542,2.38115 -2.38375,0.33604 -5.0091,0.79839 -5.8341,1.02745 -3.053195,0.84773 -36.275035,5.48326 -39.297275,5.48326 -5.63526,0 -0.95969,-2.60619 7.79728,-4.34626 4.4,-0.8743 14.525,-2.97817 22.5,-4.67524 7.974995,-1.69708 21.024995,-4.45082 28.999995,-6.11943 7.975,-1.6686 14.74757,-3.332 15.05016,-3.69645 0.70415,-0.84809 5.302588,-12.85442 13.585718,-35.47172 0.76725,-2.09501 2.73751,-6.4686 4.37835,-9.71909 3.17263,-6.28495 4.57732,-6.77031 7.34947,-2.53948 1.62671,2.48267 1.3949,3.28322 -8.41677,29.06767 -3.94329,10.36272 -5.7103,16.5 -4.75057,16.5 0.23284,0 9.17142,-1.82593 19.8635,-4.05763 10.69207,-2.2317 30.69014032,-6.29015 44.44014,-9.01876 13.75,-2.72862 31.75,-6.30096 39.99996,-7.93853 17.7155,-3.51641 40.7911,-7.01636 41.5,-6.29444 0.275,0.28003 -1.144,1.93686 -3.1535,3.68183 -6.7423,5.85499 -35.6567,13.40528 -78.84646,20.58887 -13.47499968,2.24124 -26.75,4.50787 -29.5,5.03695 -2.75,0.52907 -6.35,1.17506 -8,1.43552 -9.35323,1.47645 -27.24108,4.67522 -28.68517,5.12959 -2.01413,0.63373 -2.469,1.81614 -13.247608,34.4366 -10.08355,30.5169 -16.35914,51.7919 -17.09986,57.97055 -0.68164,5.68579 1.18772,9.63626 4.39254,9.28269 5.6047,-0.61836 17.1401,-12.69865 17.1401,-17.94974 0,-5.53677 6.652588,-25.80851 11.957748,-36.4376 9.4086,-18.85046 25.61731,-35.8659 34.16545,-35.8659 3.0688,0 6.8768003,4.01548 6.8768003,7.25149 0,1.53885 0.48313,1.85543 2.16167,1.41649 2.60749,-0.68188 5.83833,0.86897 5.83833,2.80248 0,0.77004 -2.89399,8.74171 -6.43109,17.71481 -7.0644703,17.92152 -13.5689103,39.14946 -13.5689103,44.28358 0,4.00204 2.10084,5.97364 5.46539,5.12919 3.89244,-0.97694 11.8307803,-8.52275 15.60472032,-14.83312 1.88643998,-3.15429 3.79770998,-5.74179 4.24727998,-5.75 2.59439,-0.0474 -5.71297,14.32803 -11.79436,20.40942 -7.1874503,7.18745 -15.3486603,9.63579 -18.9296503,5.67885 -0.97337,-1.07557 -1.96697,-4.32276 -2.29489,-7.5 -0.31806,-3.08175 -0.85284,-5.59108 -1.18839,-5.57629 -0.33556,0.0148 -1.7351,1.85094 -3.1101,4.08033 -6.00073,9.72942 -15.51193,16.82084 -22.62756,16.87081 -3.608908,0.0253 -5.455258,-1.80214 -6.890748,-6.82033 l -1.0183,-3.55981 -3.80821,4.64742 c -4.97771,6.07464 -9.62676,8.75468 -15.18666,8.75468 -3.88002,0 -4.60269,-0.35877 -5.94284,-2.95034 z m 47.377378,-14.79966 c 10.13475,-10.21624 13.53617,-15.83931 17.08851,-28.25 1.18071,-4.125 3.19179,-10.2 4.46907,-13.5 3.59079,-9.27719 3.8592,-10.5 2.30483,-10.5 -1.1174,0 -1.1865,-1.10534 -0.37564,-6.00825 1.28485,-7.76895 0.21125,-9.1512 -4.98184,-6.4141 -4.43092,2.33537 -11.14495,10.33885 -16.08782,19.17752 -8.76217,15.66824 -18.01054,48.22113 -14.6535,51.57817 2.15845,2.15845 5.91108,0.29283 12.23639,-6.08334 z m 362.932097,15.99485 c -2.2421,-0.48306 -3.0614,-2.95351 -1.7762,-5.35506 0.5785,-1.08093 1.49787,-2.65185 0.4291,-3.92756 -2.44328,-2.91636 2.16736,-7.98862 6.5213,-6.00041 2.27158,1.03731 1.6686,2.755 0.9069,4.75847 -0.6631,1.74401 -0.5985,2.9577 0.2093,3.93096 2.5311,3.04979 -1.7774,7.56595 -6.2904,6.5936 z m 4.1543,-2.73211 c 1.4675,-1.76827 0.6552,-4.51274 -1.3356,-4.51274 -2.0019,0 -3.9839,2.6975 -3.2971,4.48727 0.741,1.93097 3.0408,1.94361 4.6327,0.0255 z m 0.4035,-8.09452 c 0.33607,-2.16789 -0.18632,-3.14021 -1.643,-3.23777 -3.00922,-0.20154 -3.831,4.81955 -0.9265,4.81955 1.0794,0 2.42675,-0.66096 2.5695,-1.58178 z m 10.1126,6.57565 c 0.9985,-1.10337 1.6308,-2.11587 1.405,-2.25 -0.2258,-0.13413 -1.3106,-0.73926 -2.4106,-1.34473 -2.6298,-1.44753 -3.1283,-6.04731 -0.9199,-8.48757 3.1145,-3.44156 8.4199,-1.89727 8.4199,2.45089 0,2.37053 -5.7805,11.63754 -7.2592,11.63754 -0.5779,0 -0.2338,-0.90276 0.7648,-2.00613 z m 3.8636,-6.84925 c 2.81264,-3.80506 -2.35143,-6.38831 -3.9671,-4.453 -1.47916,1.7718 -2.16247,3.17611 -0.47317,4.8654 1.68931,1.6893 3.34479,1.06961 4.44027,-0.4124 z M 44.457643,420.75639 c -13.4309,-2.96379 -30.98747,-9.60485 -30.3451,-11.47854 0.51207,-1.49364 4.34256,-0.68351 11.66115,2.46629 11.39752,4.9053 19.24298,6.40806 32.99996,6.32099 26.8786,-0.17013 45.487197,-6.71716 65.017397,-22.87489 19.5637,-16.18543 38.8589,-47.60072 45.4043,-73.92471 3.8391,-15.43988 -4.6144,-21.93325 -23.988,-18.42573 -5,0.90524 -6.7204,1.82011 -10.9337,5.81439 -7.458,7.07042 -11.5198,9.76591 -22.927,15.21504 l -10.3534,4.9457 -3.971797,11.7253 c -6.2256,18.37846 -10.0709,31.17936 -11.4257,38.03501 -1.0658,5.39332 -1.0345,6.44627 0.2155,7.25 1.2787,0.82212 1.2739,1.06404 -0.038,1.92498 -2.8772,1.88879 -3.2037,0.96066 -2.5452,-7.23469 1.0875,-13.53496 4.31,-31.42519 8.1017,-44.97828 0.7276,-2.60055 0.9517,-4.95766 0.4981,-5.23802 -0.4537,-0.28036 -2.2345,-0.0183 -3.9573,0.58226 -3.8296,1.335 -8.0973,0.41326 -8.0973,-1.74885 0,-0.87714 0.9283,-3.23107 2.0629,-5.23095 1.9671,-3.46727 3.1058,-4.47301 12.4874,-11.02894 2.9704,-2.07578 4.3976,-3.9898 5.3532,-7.17941 2.541897,-8.48387 12.317297,-32.51966 15.730397,-38.67781 3.6715,-6.6244 4.911,-7.30539 8.1901,-4.5 2.0396,1.74499 2.0242,1.80248 -5.3892,20.07541 -6.4597,15.9221 -8.2394,21.17459 -7.1745,21.17459 0.1432,0 3.8088,-1.54262 8.146,-3.42805 4.3371,-1.88543 10.9513,-4.17931 14.698,-5.09751 6.3523,-1.55671 7.012,-1.98364 9.7685,-6.32194 8.083,-12.72182 12.1301,-24.00211 12.3055,-34.29945 0.3002,-17.61752 -11.4301,-21.12336 -34.7053,-10.37235 -4.2609,1.96816 -7.8549,3.45266 -7.9866,3.29889 -0.1317,-0.15377 0.3913,-2.30459 1.1622,-4.77959 2.7829,-8.93501 15.8121,-15.45953 30.9245,-15.48591 7.196,-0.0126 8.5364,0.29256 12.3383,2.80859 12.3221,8.15433 11.1131,28.95746 -3.1251,53.77739 -2.0825,3.63003 -3.7863,6.82853 -3.7863,7.10777 0,0.27924 3.1663,0.54219 7.0362,0.58432 19.9186,0.21688 26.3385,8.96974 21.0562,28.70784 -6.4146,23.96922 -22.2422,51.41767 -40.0924,69.52857 -13.8241,14.0261 -27.4636,22.81965 -44.499997,28.68962 -9.3864,3.23415 -10.9511,3.46927 -25.5,3.83184 -12.6994,0.31647 -17.0929,0.0348 -24.31601,-1.55917 z m 47.73431,-93.59785 c 0.8699,-0.33384 1.5817,-1.28198 1.5817,-2.10698 0,-0.95697 -0.5726,-1.28026 -1.5817,-0.89302 -0.87,0.33385 -1.77,0.60699 -2,0.60699 -0.2301,0 -0.4183,0.675 -0.4183,1.5 0,1.68306 0.1832,1.75069 2.4183,0.89301 z m 18.773097,-7.16637 c 10.2473,-5.95586 15.7533,-9.78574 15.7803,-10.97664 0.036,-1.57905 0.6902,-1.72381 -7.4717,1.65285 -13.3394,5.51872 -13.7366,5.75469 -15.0857,8.96317 -1.178,2.80165 -1.1373,3.13151 0.384,3.11062 0.936,-0.0128 3.8128,-1.25034 6.3931,-2.75 z m 62.2647,75.74637 c -4.0377,-1.49365 -4.962,-3.85583 -4.8434,-12.37814 0.1931,-13.88286 6.935,-34.70456 16.6116,-51.30392 7.6177,-13.06752 20.8446,-25.80956 28.839,-27.78168 3.4253,-0.845 7.3188,2.30528 7.4829,6.05455 0.112,2.55725 0.4637,2.8083 4.0201,2.86932 2.9024,0.0498 3.9857,0.51978 4.2435,1.84099 0.1904,0.97578 -1.694,6.82578 -4.1876,13 -9.1014,22.53556 -15.6222,43.51577 -15.6222,50.26339 0,1.76968 0.7203,3.81535 1.6006,4.54593 1.3552,1.1247 2.3133,0.95184 6.25,-1.12755 3.4573,-1.82618 6.5264,-4.95402 11.9696,-12.19862 6.5537,-8.72258 7.5778,-10.71203 9.7799,-19 2.8089,-10.5717 10.5632,-33.07554 13.6993,-39.75728 3.4298,-7.30729 5.3534,-9.01702 8.7951,-7.81721 3.3316,1.16138 3.4821,1.80153 1.3799,5.86687 -2.3475,4.53942 -0.2163,3.53228 6.2872,-2.97117 6.9248,-6.92482 13.5787,-11.36649 20.4438,-13.64668 4.6152,-1.53293 5.0337,-1.52543 6.855,0.12278 4.3177,3.90749 1.1462,24.13142 -5.9758,38.10576 -1.6369,3.21181 -5.2773,8.31465 -8.0897,11.33965 l -5.1136,5.5 0.6585,6 c 0.3622,3.3 1.2822,8.7 2.0446,12 0.7623,3.3 1.3927,7.0125 1.4009,8.25 0.044,6.78462 -4.9916,-2.83825 -7.6309,-14.5807 -1.0099,-4.49311 -2.2903,-8.16443 -2.8453,-8.15847 -0.555,0.006 -3.1099,0.6484 -5.6777,1.42767 -7.0726,2.14644 -11.8314,0.43895 -11.8314,-4.24522 0,-6.84592 8.0672,-16.5752 15.8821,-19.15435 4.384,-1.44686 5.8285,-0.93038 7.1549,2.55821 0.5024,1.32158 1.288,2.40286 1.7457,2.40286 1.4532,0 9.0718,-15.34365 10.6753,-21.49983 1.8816,-7.22395 1.91,-8.61471 0.2231,-10.92171 -1.2647,-1.72948 -1.4873,-1.71797 -5.4025,0.27942 -6.3747,3.25216 -20.7186,17.47136 -25.7171,25.49361 -4.6404,7.44769 -8.689,16.23489 -17.5763,38.14851 -8.0806,19.92456 -8.2726,20.32269 -8.6801,18 -0.193,-1.1 0.3027,-4.475 1.1014,-7.5 1.8076,-6.84568 0.4669,-8.63234 -2.3436,-3.12325 -3.1929,6.25863 -11.822,14.54212 -17.2928,16.60023 -4.4432,1.67154 -4.8853,1.67754 -7.2946,0.0989 -3.1013,-2.03203 -4.4606,-5.30727 -4.52,-10.89098 -0.044,-4.177 -0.048,-4.18057 -1.75,-1.89018 -0.938,1.26209 -3.6357,4.74102 -5.9949,7.73095 -6.0878,7.7155 -16.0255,13.1967 -20.7545,11.44734 z m 9.549,-7.97301 c 2.7817,0 15.1191,-14.50926 19.4093,-22.82621 0.9437,-1.82942 3.5295,-9.02942 5.7462,-16 2.2167,-6.97058 4.7528,-14.21867 5.6357,-16.10685 1.206,-2.57897 1.302,-3.53419 0.3859,-3.83956 -0.8803,-0.29344 -1.0407,-2.15159 -0.5767,-6.68117 0.7358,-7.18174 -0.1085,-8.37169 -4.3746,-6.16558 -7.5136,3.88543 -16.3249,16.38672 -22.991,32.61937 -3.8119,9.28218 -9.2363,29.27511 -9.2383,34.05 0,3.883 1.6706,6.28977 3.8021,5.47186 0.7479,-0.28702 1.7386,-0.52186 2.2014,-0.52186 z m 85.2347,-45.25 c 1.9532,-1.50529 2.6869,-4.89228 1.175,-5.42466 -1.3947,-0.49114 -6.5585,4.6331 -5.8401,5.79541 0.7711,1.24776 2.7712,1.0888 4.6651,-0.37075 z M 191.34515,155.1941 c -1.7278,-1.72778 -2.1388,-5.42857 -0.6028,-5.42857 0.5327,0 0.7624,0.5625 0.5105,1.25 -0.767,2.09268 1.1088,3.94452 3.6339,3.58749 2.4897,-0.35202 2.6141,-1.04195 1.3331,-7.39437 -0.4372,-2.1677 -0.1468,-3.4467 0.9983,-4.39702 2.3381,-1.94045 6.5771,0.13752 6.4922,3.18246 l -0.063,2.27144 -0.9044,-2.25 c -0.9674,-2.40668 -4.5197,-3.08664 -5.2243,-1 -0.2322,0.6875 0.1579,2.64439 0.8668,4.34863 1.0873,2.61377 1.0532,3.43527 -0.2179,5.25 -1.7767,2.53658 -4.6234,2.77858 -6.822,0.57994 z m -304.07145,-2.46142 c -1.7877,-0.73884 -1.72109,-0.83404 0.62755,-0.89686 3.18729,-0.0853 5.14651,-2.19251 4.23851,-4.55874 -0.55122,-1.43644 -1.45683,-1.63389 -5.16366,-1.12581 -4.8835,0.66936 -7.2024,-0.44189 -7.2024,-3.45148 0,-1.68637 3.43762,-4.93426 5.22251,-4.93426 1.63832,0 0.68167,1.7918 -1.22251,2.28975 -1.23107,0.32193 -2,1.36402 -2,2.71047 0,2.03909 0.32693,2.14249 4.8202,1.52451 3.689,-0.50737 5.11509,-0.30763 6.07676,0.85112 2.92793,3.52794 -1.19539,9.32775 -5.39696,7.5913 z m 291.52895,-8.43634 -2.3197,-2.4692 4.2908,-5.56166 c 2.3599,-3.05891 4.6657,-5.79337 5.1239,-6.07658 0.9973,-0.61636 6.876,3.55559 6.876,4.8797 0,0.50982 -1.1091,0.2002 -2.4648,-0.68806 -4.8763,-3.19509 -7.9358,-0.93438 -4.2373,3.13105 2.7361,3.00749 1.3227,4.18553 -1.6599,1.38353 l -2.3542,-2.21162 -1.7922,2.73523 c -1.7496,2.67024 -1.7411,2.76917 0.3581,4.16299 2.1503,1.42776 2.8809,3.18381 1.3247,3.18381 -0.4542,0 -1.8696,-1.11114 -3.1454,-2.46919 z m -282.39551,-6.55599 -4.71669,-6.47482 2.15241,-1.75 c 5.37821,-4.37271 10.916265,1.29366 6.275845,6.42126 -1.541825,1.70371 -1.534805,1.96153 0.10262,3.77088 0.96669,1.06817 1.56521,2.51934 1.33005,3.22482 -0.23598,0.70792 -2.541065,-1.61863 -5.144235,-5.19214 z m 3.19625,-3.72482 c 1.303255,-2.53396 0.35278,-4.25 -2.35401,-4.25 -3.13025,0 -3.72022,1.20586 -1.87727,3.83704 1.83503,2.61988 3.03594,2.73709 4.23128,0.41296 z m 269.17026,1.08192 c 0,-3.23735 -2.2138,-14.33144 -2.8526,-14.2954 -0.3561,0.0201 -1.9201,2.04508 -3.4757,4.5 -1.5556,2.45491 -3.2949,4.46348 -3.865,4.46348 -0.5702,0 -0.2338,-1.2375 0.7474,-2.75 5.5553,-8.56274 6.7803,-10.25 7.4416,-10.25 0.4015,0 1.2744,3.375 1.9398,7.5 0.6655,4.125 1.5147,7.49039 1.8872,7.47865 0.3725,-0.0117 1.9632,-1.8384 3.5348,-4.05923 4.3892,-6.20253 4.4092,-3.76724 0.025,3.03749 -3.9762,6.17121 -5.3824,7.31422 -5.3824,4.37501 z m -259.711835,-6.79707 -4.21188,-6.35562 3.46188,-2.64051 c 1.90403,-1.45227 3.46188,-2.17141 3.46188,-1.59808 0,0.57333 -0.9,1.60447 -2,2.29144 -2.16809,1.35399 -2.44682,2.51444 -1.11048,4.6234 0.70689,1.1156 1.3291,1.04738 3.51589,-0.38546 1.46135,-0.95751 2.98046,-1.39337 3.3758,-0.96857 0.39533,0.4248 0.2201,0.95198 -0.3894,1.17152 -0.60951,0.21954 -1.90653,0.98292 -2.88228,1.6964 -1.6891,1.2351 -1.69068,1.42454 -0.033,3.95453 l 1.74112,2.65728 2.82095,-2.00869 c 1.55152,-1.10478 3.08034,-1.58898 3.39738,-1.076 0.4766,0.77115 -5.30828,5.22737 -6.55406,5.04874 -0.21008,-0.0301 -2.27731,-2.9148 -4.59384,-6.41038 z m 189.711838,-1.03485 c -1.4234,-4.31301 -2.5581,-4.45934 -3.3632,-0.43372 -0.3373,1.68645 -1.0445,2.79978 -1.5715,2.47405 -0.5861,-0.36221 -0.3965,-2.18447 0.4883,-4.692 0.7955,-2.25488 1.4464,-4.8572 1.4464,-5.78292 0,-0.92573 0.6205,-2.53166 1.3788,-3.56872 1.3143,-1.7974 1.5013,-1.80526 3.999997,-0.16808 3.2007,2.09719 3.3241,4.29438 0.4149,7.39105 -1.915397,2.03881 -2.058697,2.73975 -1.0869,5.31446 0.6157,1.63123 0.7435,2.96588 0.2839,2.96588 -0.4595,0 -1.355397,-1.575 -1.990697,-3.5 z m 3.041697,-7.05019 c 1.0626,-1.28032 0.9981,-1.83864 -0.3704,-3.20714 -1.833197,-1.83322 -3.035597,-1.10259 -4.126297,2.50733 -0.5423,1.79511 -0.2865,2.25 1.2652,2.25 1.0697,0 2.523897,-0.69758 3.231497,-1.55019 z m -113.209437,8.00094 c -0.29368,-0.52291 -1.11255,-3.76325 -1.81973,-7.20075 -1.17403,-5.70679 -1.50857,-6.25 -3.84913,-6.25 -3.96959,0 -1.28842,-1.70457 3.83664,-2.43916 3.7520003,-0.53779 4.1675503,-0.44727 2.5,0.54456 -1.1,0.65426 -2.13772,1.29842 -2.30604,1.43146 -0.16833,0.13304 0.4175,3.03418 1.30185,6.44697 1.46999,5.67289 1.65674,9.81788 0.33641,7.46692 z m 88.35634,-3.4897 c -1.2037,-1.12143 -2.1886,-2.67428 -2.1886,-3.45078 0,-3.13723 2.2245,-11.51027 3.0579,-11.51027 0.4907,0 0.5766,1.4625 0.1908,3.25 -1.241,5.75128 -0.8646,9.93302 1.0013,11.12336 2.8065,1.79039 5.1146,-0.48122 6.4094,-6.30811 1.3961,-6.28309 2.8803,-8.19324 1.9932,-2.56525 -0.3468,2.2 -0.6355,4.7875 -0.6416,5.75 -0.014,2.28919 -3.5188,5.75 -5.8224,5.75 -0.9963,0 -2.7963,-0.91753 -4,-2.03895 z m -77.62548968,-3.71105 c -0.36521002,-2.6125 -0.91639002,-6.2125 -1.22484002,-8 -0.525,-3.04247 -0.37811,-3.24902 2.30048002,-3.23468 5.13430998,0.0275 7.67385998,3.87683 4.71481998,7.14653 -1.60618,1.77481 -1.54544,2.02841 1.16298,4.85538 3.8569997,4.02585 1.95114,3.80929 -2.35184,-0.26723 l -3.43053998,-3.25 0.57005998,3.75 c 0.31354,2.0625 0.19945,3.75 -0.25351998,3.75 -0.45297,0 -1.12239,-2.1375 -1.4876,-4.75 z m 5.43692998,-6.66274 c 0,-1.81728 -2.66297,-3.91359 -3.95619998,-3.11433 -1.138,0.70333 -1.42861,4.80893 -0.41232,5.82522 0.94927998,0.94928 4.36851998,-1.17253 4.36851998,-2.71089 z m 144.6798567,7.66274 c -1.3306,-6.68734 -3.084,-12.25 -3.8613,-12.25 -0.4645,0 -1.8284,2.025 -3.0308,4.5 -2.0134,4.14414 -3.7878,5.81728 -3.7878,3.57167 0,-1.14497 7.1523,-13.25272 7.5775,-12.82754 0.1686,0.1686 1.1597,3.42081 2.2023,7.22714 1.0427,3.80633 2.307,7.05765 2.8095,7.22515 0.5025,0.16751 1.988,-1.72066 3.3012,-4.19593 1.3131,-2.47527 2.7833,-4.50049 3.2671,-4.50049 0.9856,0 -6.2946,13.95637 -7.2941,13.98303 -0.35,0.009 -0.8827,-1.22053 -1.1836,-2.73303 z m -225.640905,-0.43856 c -4.29104,-4.60589 -1.74816,-12.30511 4.71105,-14.26389 3.35241,-1.01663 2.72152,0.836 -0.72809,2.13808 -4.11324,1.55257 -5.90743,5.64994 -3.97485,9.0773 2.24153,3.97526 6.48818,4.9568 10.05057,2.32301 1.5963,-1.1802 2.90237,-1.70786 2.90237,-1.17258 0,1.75682 -4.38044,4.08664 -7.68355,4.08664 -2.04379,0 -3.99075,-0.8074 -5.2775,-2.18856 z m 91.191038,0.93856 c 0.24418,-0.6875 1.50054,-4.2875 2.79192,-8 1.29137,-3.7125 2.63311,-6.75 2.98163,-6.75 0.62445,0 7.99646,13.29469 7.99646,14.42081 0,1.4752 -1.78702,0.34205 -2.73226,-1.73252 -0.88124,-1.93412 -1.64392,-2.24277 -4.66918,-1.88959 -2.80145,0.32706 -3.75097,0.96036 -4.21563,2.81172 -0.32986,1.31427 -1.04911,2.38958 -1.59833,2.38958 -0.54922,0 -0.79879,-0.5625 -0.55461,-1.25 z m 8.77001,-6.55887 c 0,-1.23066 -2.77282,-4.75733 -3.29401,-4.18955 -0.25165,0.27413 -0.76876,1.51092 -1.14915,2.74842 -0.59285,1.92867 -0.32496,2.25 1.87577,2.25 1.41206,0 2.56739,-0.36399 2.56739,-0.80887 z m 34.87386,7.34941 c -0.2527,-0.2527 -0.029,-3.8527 0.4966,-8 l 0.956,-7.54054 h 3.8368 c 2.1413,0 3.8367,0.4898 3.8367,1.10841 0,0.70023 -0.9777,0.863 -2.6551,0.44201 -1.7259,-0.43317 -2.9455,-0.20862 -3.4847,0.64159 -1.4649,2.30978 -0.9204,3.80758 1.3898,3.82331 1.2375,0.008 2.925,0.45153 3.75,0.98468 1.1201,0.72384 0.5773,0.97326 -2.143,0.98469 -3.5532,0.0149 -4.857,1.22227 -4.857,4.49776 0,0.72538 2.77151,1.64826 3.664095,1.88533 0,0 3.991058,0.62261 3.835905,1.42552 -0.155153,0.80291 -4.0833,0.10335 -4.0833,0.10335 -2.2458,0.0568 -4.2901,-0.10341 -4.5428,-0.35611 z m -23.87386,-8.54054 c 0,-4.66666 0.41667,-8 1,-8 0.58333,0 1,3.33334 1,8 0,4.66667 -0.41667,8 -1,8 -0.58333,0 -1,-3.33333 -1,-8 z m 12.49948,1.00513 c 0.67422,-6.71355 0.60792,-7.03274 -1.6485,-7.93661 -1.98037,-0.79329 -1.60218,-0.95174 2.39902,-1.00513 2.6125,-0.0349 4.74996,0.38661 4.74996,0.93661 0,0.55 -0.9,1 -1.99996,1 -1.80953,0 -2,0.66667 -2,7 0,4.42999 -0.40441,7 -1.10149,7 -0.76396,0 -0.88623,-2.14345 -0.39903,-6.99487 z m -141.499478,0.55389 c 0,-0.79254 0.45,-1.7191 1,-2.05902 0.55,-0.33992 1,0.30853 1,1.44099 0,1.13246 -0.45,2.05901 -1,2.05901 -0.55,0 -1,-0.64844 -1,-1.44098 z m 35.386558,-5.80902 c -1.587608,-3.4375 -3.036558,-6.5875 -3.219888,-7 -0.18334,-0.4125 0.0973,-0.75 0.62368,-0.75 0.52635,0 2.363848,2.94521 4.083328,6.5449 3.43454,7.19017 3.51496,7.4551 2.26288,7.4551 -0.47489,0 -2.16239,-2.8125 -3.75,-6.25 z m 185.314397,2.65231 c -3.1239,-1.69372 -3.1002,-1.98951 0.8815,-10.99289 l 2.3849,-5.392633 3.5163,1.67682 c 4.312,2.056263 4.6715,3.568673 0.4713,1.983313 -2.4949,-0.941753 -3.2147,-0.880913 -3.9846,0.33686 -1.4381,2.27436 -1.2089,2.7074 2.0296,3.83638 4.1955,1.46253 3.7396,2.29173 -0.8559,1.55688 -3.4517,-0.55195 -3.9219,-0.36971 -4.4844,1.73819 -0.6207,2.32582 -0.3209,2.74109 4.0037,5.54597 2.8082,1.82133 -0.5176,1.57886 -3.9624,-0.28889 z m -174.685647,-5.02731 c -0.008,-3.36875 0.24887,-7.44591 0.57176,-9.060353 l 0.58707,-2.93536 5.84378,6.046183 c 3.21407,3.32539 5.65265,6.2373 5.41906,6.47089 -0.2336,0.23359 -1.25317,-0.32502 -2.26572,-1.24137 -1.51899,-1.37466 -2.39462,-1.47309 -5.00613,-0.56271 -1.81719,0.63348 -3.17165,1.80699 -3.18044,2.75555 -0.008,0.90869 -0.45154,2.32717 -0.98469,3.15217 -0.68428,1.05884 -0.97388,-0.30141 -0.98469,-4.625 z m 5.54703,-3.47586 c 0.3742,-0.60548 -0.27424,-2.05548 -1.44099,-3.22223 l -2.12135,-2.121353 v 3.222223 c 0,3.23469 2.10101,4.48583 3.56234,2.12136 z m 157.694517,2.85086 c 0.259,-0.6875 1.4924,-4.0625 2.741,-7.5 1.2486,-3.437503 2.708,-6.250003 3.2431,-6.250003 0.5352,0 0.6819,0.7875 0.3261,1.75 -3.4911,9.443353 -5.1915,13.250003 -5.919,13.250003 -0.4741,0 -0.6502,-0.5625 -0.3912,-1.25 z M -31.220787,99.283147 c -1.29423,-4.12682 -2.08055,-7.77592 -1.74737,-8.1091 0.33318,-0.33318 1.27664,1.65324 2.09658,4.41428 2.27262,7.652713 3.26723,9.081683 5.88218,8.450963 2.83764,-0.68443 1.22351,1.21256 -1.80757,2.12432 -1.84308,0.5544 -2.32929,-0.20181 -4.42382,-6.880463 z m 137.244437,6.397193 c -1.2375,-0.4677 -2.25,-1.15384 -2.25,-1.52477 0,-2.25557 4.252,-14.390043 5.0424,-14.390043 1.24,0 1.2803,-0.25079 -1.0424,6.5 -2.4856,7.224543 -2.4823,7.386043 0.171,8.367553 1.194,0.4417 1.7565,1.04936 1.25,1.35036 -0.5065,0.301 -1.9335,0.1646 -3.171,-0.3031 z M -19.644277,95.199677 c -2.06008,-8.73839 -1.43692,-11.2502 0.81663,-3.29163 2.51839,8.893913 2.86067,10.857483 1.89259,10.857483 -0.50906,0 -1.72821,-3.404633 -2.70922,-7.565853 z m 115.08463,6.899193 c -0.3667,-0.36667 -0.6667,-1.44353 -0.6667,-2.393023 0,-3.00218 -7.281,-4.25636 -8.3616,-1.44032 -0.3166,0.825 -1.2875,1.5 -2.1576,1.5 -1.0856,0 0.081,-2.17878 3.7186,-6.94492 2.9154,-3.81971 5.6381,-6.96971 6.0506,-7 0.4125,-0.0303 0.7594,0.95742 0.7709,2.19492 0.011,1.2375 0.6102,5.0625 1.3305,8.5 1.2081,5.765253 1.0212,7.289273 -0.6847,5.583343 z m -1.6667,-9.333343 c 0,-3.52985 -0.9986,-3.83311 -2.8516,-0.86598 -1.1115,1.77988 -1.11,2.27519 0.01,2.98469 2.2629,1.43427 2.8421,1.0025 2.8421,-2.11871 z m -100.4039397,6 c -0.35781,-1.375 -0.98659,-4.525 -1.39728,-7 -0.59892,-3.60935 -1.18728,-4.56324 -2.9727203,-4.81955 -2.90653,-0.41724 -2.8873,-2.17643 0.024,-2.1941 1.2375003,-0.008 3.3750003,-0.26591 4.7500003,-0.57422 2.33905,-0.52448 2.38295,-0.46501 0.68197,0.92364 -1.6466,1.34425 -1.70669,2.05016 -0.63726,7.48598 1.17954,5.99546 0.8139,11.030133 -0.44869,6.17825 z m 11.88335,-3.47389 c -0.28999,-1.66436 -0.90945,-5.16935 -1.37659,-7.78886 -0.82237,-4.61155 -0.76605,-4.78087 1.77394,-5.33352 1.4428,-0.31393 3.17137,-0.73853 3.84125,-0.94358 0.6698897,-0.20504 1.4839497,0.0575 1.8090197,0.58353 0.32587,0.52726 -0.75494,0.95632 -2.4089597,0.95632 -3.43878,0 -4.23668,0.83029 -3.50109,3.64318 0.41224,1.57642 1.18197,1.90968 3.70176,1.60269 2.4472997,-0.29815 2.8352097,-0.14404 1.6812997,0.66797 -0.8249997,0.58054 -2.2874997,1.06243 -3.2499997,1.07085 -1.90562,0.0167 -2.30395,2.59065 -0.77514,5.00887 0.58826,0.9305 2.09044,1.37333 3.9846797,1.17463 1.67225,-0.1754 3.04046,0.11773 3.04046,0.65141 0,0.53368 -1.79851,1.14185 -3.9966897,1.35148 -3.77539,0.36004 -4.02588,0.21358 -4.52394,-2.64497 z m 69.9082897,-0.52611 c 0.3663,-2.475 0.9283,-5.95873 1.2489,-7.74163 0.4921,-2.73699 0.2155,-3.40277 -1.7768,-4.27669 -2.0813,-0.91288 -1.9614,-0.97288 1.0152,-0.50836 1.8563,0.28968 4.2188,0.52668 5.25,0.52668 1.0313,0 1.875,0.4447 1.875,0.98821 0,0.54352 -0.9956,0.88102 -2.2124,0.75 -1.9988,-0.21521 -2.3126,0.40733 -3.25,6.44709 -0.5707,3.67692 -1.4377,7.05192 -1.9267,7.5 -0.5157,0.47249 -0.6094,-1.07549 -0.2232,-3.6853 z m -54.55433,-4.38337 c -0.0917,-3.63914 -0.20416,-7.40413 -0.25,-8.36663 -0.0632,-1.32723 0.84677,-1.82642 3.76668,-2.06632 2.53764,-0.2085 3.62536,0.0471 3.19098,0.75 -0.36246,0.58648 -1.78877,1.06632 -3.16956,1.06632 -2.03153,0 -2.44956,0.4293 -2.19098,2.25 0.25274,1.77961 0.87876,2.19229 2.99442,1.97393 1.47118,-0.15184 2.96023,0.18566 3.30902,0.75 0.38813,0.62802 -0.74655,1.02607 -2.92487,1.02607 -3.02871,0 -3.55674,0.33527 -3.54371,2.25 0.0243,3.56951 1.48446,5.07878 4.37832,4.52559 1.4335,-0.27404 2.60637,-0.11065 2.60637,0.36308 0,0.47374 -0.7875,0.86748 -1.75,0.87499 -0.9625,0.008 -2.7625,0.28499 -4,0.61663 -2.15629,0.57786 -2.25694,0.32739 -2.41667,-6.01366 z m 42.98473,0.13337 c 0.5405,-7.57915 2.0206,-12.21781 2.1186,-6.63957 0.088,5.00037 -1.0668,12.88957 -1.8864,12.88957 -0.3728,0 -0.4773,-2.8125 -0.2322,-6.25 z m -26.31806,3.25 c -0.99549,-1.1 -1.31679,-2 -0.71401,-2 0.60279,0 1.37409,0.45 1.71401,1 0.92688,1.49973 5.20787,1.20366 5.82433,-0.4028 0.64641,-1.68454 -0.85876,-3.63916 -4.57433,-5.94022 -3.20672,-1.98593 -3.46922,-3.69612 -0.92126,-6.00199 2.23656,-2.02406 4.5406,-2.11981 6.08985,-0.25308 0.96043,1.15725 0.59546,1.3754 -2.09133,1.25 -4.41689,-0.20614 -4.70119,2.27715 -0.55685,4.86383 3.46297,2.16141 4.63888,5.68371 2.68391,8.0393 -1.70704,2.05686 -5.33506,1.78672 -7.45432,-0.55504 z M 6.3800033,78.349087 c 0.33422,-0.87096 1.04702,-1.58356 1.58401,-1.58356 1.31439,0 0.49134,2.27278 -1.0035,2.77106 -0.73075,0.24359 -0.95424,-0.21358 -0.58051,-1.1875 z"
           id="path1"
           sodipodi:nodetypes="ssssssssssssssssssssssssssssssssssssssssssssssssssssssssscssssssssscsssssssssssssssssssssssssssssssssssscsssssssssssssssssssssssssssssssssssssssssssssssszscssssscssssssssssssssssssssssssssssssssssssssssssssssssssscssssssssssssssssssssssssssssssssssssssscsssssssscssscssssssssssssssssssssssssssssccssssssssssssssssssssssssssssssssscsscssssssssssssssssscssssssssssscsssssscsssssccssssccsssssssssssscsssssscssssscssssssssssssscsssssssccssssssssscsssscssssssssssssssssssssssssssscssscsssssssscsssssssssssssssscssssssssssssssssssssssssccsssscsssszsssssssssssssssssssssssssssscsssssssscscsssscscsscssssscssssssssssssssssssssssssscsscscccssscsssssssssssssssssssssssssssssssssssssssssscsssssssssssssssssssss" /><path
           style="display:inline;fill:#008000;fill-opacity:1;stroke:none;stroke-width:18.6844;stroke-linecap:butt;stroke-linejoin:round;stroke-dasharray:none;stroke-opacity:1;paint-order:normal"
           id="path36"
           d="m -228.18375,485.19759 c 62.29577,-5.74113 125.80197,-17.46388 154.580677,-21.01869 28.7787,-3.55481 53.70786,-7.09353 58.04051,-7.66782 -2.75344,-6.84103 -0.5483,-1.81604 -2.62802,-6.27384 -4.3764,0.51045 -28.01445,3.31492 -59.34702,8.65219 -31.332567,5.33727 -80.150307,13.21667 -102.901537,16.65486 -22.75125,3.43819 -63.69143,12.27217 -47.74461,9.6533 z"
           sodipodi:nodetypes="czcczzc" /><path
           style="display:inline;fill:#ff0000;fill-opacity:1;stroke:none;stroke-width:23.4021;stroke-linecap:butt;stroke-linejoin:round;stroke-dasharray:none;stroke-opacity:1;paint-order:normal"
           id="path37"
           d="M 3.7233068,453.05207 C 244.69534,416.90012 296.43944,405.8184 301.94994,404.94502 c 5.5107,-0.87339 24.7168,-10.78243 18.047,-9.65497 -104.2464,17.62189 -213.2868,35.14871 -318.4469332,51.77182 0,0 1.79943,6.26149 2.1733,5.9902 z"
           sodipodi:nodetypes="czscc" /></g></g></g><g
     inkscape:groupmode="layer"
     id="layer3"
     inkscape:label="Layer 1"
     style="display:none"
     transform="translate(-648.91058,-230.32721)"><g
       id="g4"
       inkscape:export-filename="PastaBarVector01.svg"
       inkscape:export-xdpi="50"
       inkscape:export-ydpi="50"><g
         id="g27"
         style="display:inline"><path
           style="fill:#ffffff;fill-opacity:1"
           d="m 714.73197,649.66346 c -6.15434,-5.38366 -6.20541,-5.76219 -3.22318,-23.89158 8.50265,-51.68891 29.26597,-118.39398 49.41085,-158.73927 4.27888,-8.56955 5.69058,-10.51611 8.63059,-11.90045 5.21306,-2.45464 8.36899,-2.69146 8.77362,-0.65838 0.18629,0.93604 -3.34639,9.26104 -7.8504,18.5 -9.89535,20.29806 -13.46637,27.98907 -15.32317,33.00187 -12.95808,34.98312 -20.87749,58.36792 -20.04769,59.19772 0.65645,0.65645 2.14614,-0.26008 16.99738,-10.45768 39.09653,-26.84563 76.56469,-74.14397 84.92137,-107.20141 4.50252,-17.8111 4.06652,-30.24543 -1.5752,-44.92337 -5.84645,-15.21062 -17.45964,-24.5495 -34.77575,-27.96532 -10.87875,-2.14598 -18.98484,-1.1737 -35.09454,4.20938 -20.44955,6.83326 -38.73194,17.17629 -59.04142,33.40193 -7.80305,6.23402 -25.91324,23.82688 -32.73193,31.79692 -39.22188,45.8446 -54.80502,95.62676 -37.22317,118.91375 14.48808,19.18932 36.94832,12.41171 56.91826,-17.17569 5.43291,-8.04939 10.39908,-18.31746 15.03132,-31.07881 1.78107,-4.90665 3.60547,-9.82119 4.05424,-10.92119 0.80369,-1.97 1.57409,11.793 1.09153,19.5 -0.29864,4.76962 -4.57533,17.50865 -8.77485,26.13773 -8.0067,16.45199 -17.28678,26.34692 -30.8808,32.9268 -6.998,3.38723 -9.61875,4.10908 -16.64516,4.58465 -7.0411,0.47657 -9.23411,0.22545 -14.08609,-1.61297 -10.03283,-3.80144 -19.88928,-14.86781 -24.08023,-27.03621 -8.60709,-24.99055 0.68945,-63.48073 23.66994,-98 19.92303,-29.92663 42.60626,-52.38401 73.88253,-73.14693 17.47557,-11.60125 30.15544,-17.14118 52.21275,-22.81212 11.968,-3.07698 34.75442,-2.45591 39.15367,1.06718 0.60061,0.48099 1.32973,0.6368 1.62028,0.34625 0.29055,-0.29055 4.07414,1.15789 8.40799,3.21875 11.32834,5.38692 18.71349,13.11572 25.33358,26.51238 19.41656,39.29209 3.49101,86.29542 -46.86335,138.31449 -4.79159,4.95 -12.50965,12.375 -17.15124,16.5 -4.6416,4.125 -8.88927,8.02999 -9.43927,8.67776 -2.04399,2.40732 -17.33765,13.13471 -27.5,19.28925 -5.775,3.49746 -11.04153,6.84817 -11.7034,7.44601 -1.22081,1.10271 -2.09844,4.01614 -7.40648,24.58698 -2.7257,10.56325 -2.95667,12.78892 -2.83544,27.32334 0.0726,8.70283 -0.0461,16.00144 -0.26381,16.21913 -0.21769,0.21768 -2.73468,-1.65021 -5.59333,-4.15089 z m 33.11789,-0.43905 c -3.31574,-1.27448 -4.31538,-4.10366 -4.31538,-12.21336 0,-8.63428 4.06784,-24.42049 9.72472,-37.73917 12.47506,-29.37148 38.87513,-52.13296 42.68421,-36.80126 0.77357,3.11368 1.31053,3.64704 3.60589,3.58178 3.4321,-0.0976 4.98518,0.8697 4.98518,3.10488 0,0.97204 -2.52761,8.03299 -5.61692,15.69098 -6.56911,16.28396 -14.38308,41.17014 -14.38308,45.80772 0,1.7785 0.62344,4.08624 1.38542,5.12831 1.33573,1.82672 1.52446,1.83198 5.26173,0.14671 2.13197,-0.96139 5.26757,-3.19048 6.968,-4.95355 2.55664,-2.65081 3.20164,-4.29383 3.72695,-9.49385 0.76213,-7.5443 4.01777,-15.56303 7.39829,-18.22214 1.35438,-1.06536 3.95061,-2.21619 5.7694,-2.55739 3.00491,-0.56373 3.85774,-1.63913 9.33902,-11.77628 3.31768,-6.13575 7.66858,-14.72034 9.66868,-19.07688 l 3.63655,-7.92096 -2.66439,-5.26607 c -3.08629,-6.09996 -2.7855,-8.29465 1.79858,-13.12316 3.78412,-3.9859 9.12793,-5.99828 11.25048,-4.23672 1.89058,1.56905 1.84428,4.07711 -0.19468,10.54545 -1.54806,4.911 -1.54591,5.3634 0.0329,6.94222 4.91943,4.91942 7.89814,16.21072 7.83597,29.70354 -0.0408,8.84608 -0.67855,11.90918 -4.5343,21.77667 -4.21887,10.79678 -14.56464,23.31181 -22.73382,27.50059 -9.30394,4.77062 -15.80793,4.42472 -22.00072,-1.17009 l -3.83116,-3.46123 -3.73823,4.13778 c -4.47575,4.95412 -9.71323,7.90704 -14.33621,7.90704 -4.65028,0 -7.41463,-2.8235 -7.64811,-8.6932 -0.10179,-2.55886 -0.56875,-4.76723 -1.03771,-4.90751 -0.46895,-0.14027 -1.97764,1.61036 -3.35264,3.8903 -2.91031,4.8257 -10.39566,12.44817 -14,14.25645 -3.63029,1.8213 -8.17679,2.45634 -10.68462,1.4924 z m 10.48428,-8.37407 c 4.08172,-2.14875 11.47262,-10.28072 16.1081,-17.72324 4.43514,-7.12085 15.91546,-40.08082 14.16395,-40.66465 -0.54794,-0.18265 -0.70055,-3.22968 -0.36327,-7.25277 0.41467,-4.94616 0.24723,-6.9378 -0.58327,-6.9378 -1.85171,0 -8.3363,4.4758 -11.79474,8.14097 -7.43585,7.88034 -19.28228,35.40653 -22.87048,53.14151 -1.33582,6.60241 -1.17229,8.89566 0.81773,11.46752 1.20511,1.55745 1.24015,1.55612 4.52198,-0.17154 z m 65.78362,-7.86389 c 9.58798,-5.58988 19.36845,-23.1252 21.67312,-38.85757 0.96444,-6.58357 0.86148,-8.77331 -0.74278,-15.79737 -2.8647,-12.5428 -3.41817,-12.76884 -8.44399,-3.44858 -2.3397,4.33892 -8.48181,14.27664 -13.64913,22.08382 -11.55738,17.46176 -13.54376,21.2191 -14.17404,26.81092 -0.43952,3.89944 -0.14986,4.74465 2.55195,7.44646 2.35711,2.35711 3.91495,3.03972 6.87467,3.01232 2.10481,-0.0195 4.7644,-0.58199 5.9102,-1.25 z m 35.94241,-6.66491 c -2.89769,-5.6035 -1.15358,-24.31516 3.97136,-42.60672 2.20119,-7.85632 17.47546,-53.44755 18.66553,-55.71361 0.51145,-0.97386 0.70454,-2.13532 0.42909,-2.58102 -0.27546,-0.44569 -5.43342,-0.0138 -11.46214,0.95983 -6.02873,0.9736 -12.91167,2.04512 -15.29542,2.38115 -2.38376,0.33604 -5.00911,0.79839 -5.83411,1.02745 -3.0532,0.84773 -36.27504,5.48326 -39.29727,5.48326 -5.63526,0 -0.9597,-2.60619 7.79727,-4.34626 4.4,-0.87431 14.525,-2.97817 22.5,-4.67525 7.975,-1.69707 21.025,-4.45082 29,-6.11942 7.975,-1.6686 14.74758,-3.332 15.05016,-3.69645 0.70415,-0.84809 5.30259,-12.85442 13.58572,-35.47173 0.76726,-2.09501 2.73751,-6.46859 4.37835,-9.71908 3.17264,-6.28495 4.57733,-6.77032 7.34948,-2.53948 1.6267,2.48266 1.3949,3.28322 -8.41678,29.06767 -3.94329,10.36272 -5.71029,16.5 -4.75057,16.5 0.23285,0 9.17142,-1.82594 19.8635,-4.05764 10.69208,-2.2317 30.69014,-6.29014 44.44014,-9.01875 13.75,-2.72862 31.75,-6.30096 40.00002,-7.93853 17.7154,-3.51641 40.791,-7.01636 41.5,-6.29444 0.275,0.28003 -1.1441,1.93685 -3.1535,3.68183 -6.7424,5.85498 -35.6567,13.40528 -78.84652,20.58887 -13.475,2.24124 -26.75,4.50787 -29.5,5.03695 -2.75,0.52907 -6.35,1.17506 -8,1.43552 -9.35322,1.47645 -27.24108,4.67522 -28.68516,5.12959 -2.01413,0.63373 -2.469,1.81614 -13.24761,34.4366 -10.08355,30.5169 -16.35914,51.7919 -17.09986,57.97055 -0.68164,5.68579 1.18771,9.63626 4.39254,9.28268 5.60469,-0.61835 17.14009,-12.69864 17.14009,-17.94973 0,-5.53677 6.6526,-25.80851 11.95776,-36.4376 9.40859,-18.85046 25.6173,-35.8659 34.16545,-35.8659 3.0688,0 6.87679,4.01548 6.87679,7.25149 0,1.53885 0.48314,1.85543 2.16168,1.41648 2.60748,-0.68187 5.83832,0.86898 5.83832,2.80248 0,0.77005 -2.89399,8.74172 -6.43108,17.71482 -7.06447,17.92151 -13.56892,39.14946 -13.56892,44.28357 0,4.00205 2.10084,5.97365 5.4654,5.1292 3.89244,-0.97694 11.83078,-8.52275 15.60472,-14.83312 1.88644,-3.15429 3.79771,-5.74179 4.24727,-5.75 2.5944,-0.0474 -5.71297,14.32803 -11.79436,20.40942 -7.18744,7.18745 -15.34866,9.63579 -18.92964,5.67885 -0.97338,-1.07557 -1.96697,-4.32276 -2.29489,-7.5 -0.31807,-3.08175 -0.85284,-5.59109 -1.1884,-5.57629 -0.33555,0.0148 -1.7351,1.85094 -3.1101,4.08033 -6.00073,9.72941 -15.51193,16.82084 -22.62755,16.87081 -3.60891,0.0253 -5.45526,-1.80214 -6.89075,-6.82033 l -1.01831,-3.55981 -3.80821,4.64742 c -4.9777,6.07463 -9.62675,8.75468 -15.18666,8.75468 -3.88001,0 -4.60268,-0.35877 -5.94283,-2.95034 z m 47.37737,-14.79966 c 10.13476,-10.21624 13.53617,-15.83931 17.08852,-28.25 1.1807,-4.125 3.19179,-10.2 4.46907,-13.5 3.59078,-9.27719 3.8592,-10.5 2.30482,-10.5 -1.11739,0 -1.1865,-1.10534 -0.37564,-6.00825 1.28485,-7.76895 0.21126,-9.1512 -4.98183,-6.41411 -4.43092,2.33538 -11.14495,10.33886 -16.08782,19.17753 -8.76218,15.66824 -18.01055,48.22112 -14.65351,51.57816 2.15846,2.15846 5.91108,0.29284 12.23639,-6.08333 z m 85.7809,1.74086 c -13.43091,-2.96379 -30.98748,-9.60485 -30.34511,-11.47854 0.51208,-1.49364 4.34257,-0.68351 11.66115,2.46629 11.39752,4.9053 19.24299,6.40806 33.00002,6.32099 26.8785,-0.17013 45.4872,-6.71717 65.0174,-22.87489 19.5637,-16.18543 38.8588,-47.60072 45.4043,-73.92471 3.8391,-15.43988 -4.6145,-21.93325 -23.9881,-18.42573 -5,0.90524 -6.7203,1.82011 -10.9336,5.81439 -7.4581,7.07042 -11.5198,9.76591 -22.9271,15.21504 l -10.3534,4.9457 -3.9718,11.7253 c -6.2255,18.37846 -10.0709,31.17936 -11.4257,38.03501 -1.0657,5.39331 -1.0344,6.44627 0.2156,7.25 1.2786,0.82212 1.2739,1.06404 -0.038,1.92498 -2.8773,1.88879 -3.2038,0.96066 -2.5453,-7.23469 1.0875,-13.53496 4.31,-31.42519 8.1018,-44.97828 0.7275,-2.60055 0.9516,-4.95767 0.498,-5.23802 -0.4536,-0.28036 -2.2344,-0.0183 -3.9573,0.58226 -3.8296,1.33499 -8.0972,0.41326 -8.0972,-1.74886 0,-0.87713 0.9283,-3.23106 2.0628,-5.23094 1.9671,-3.46727 3.1058,-4.47301 12.4874,-11.02895 2.9705,-2.07577 4.3976,-3.98979 5.3533,-7.1794 2.5418,-8.48387 12.3172,-32.51966 15.7303,-38.67781 3.6716,-6.6244 4.911,-7.3054 8.1901,-4.5 2.0397,1.74499 2.0242,1.80248 -5.3892,20.07541 -6.4597,15.9221 -8.2393,21.17459 -7.1744,21.17459 0.1431,0 3.8088,-1.54262 8.1459,-3.42805 4.3372,-1.88543 10.9513,-4.17931 14.6981,-5.09751 6.3523,-1.55671 7.012,-1.98364 9.7684,-6.32194 8.0831,-12.72182 12.1301,-24.00211 12.3056,-34.29945 0.3002,-17.61752 -11.4301,-21.12336 -34.7053,-10.37235 -4.261,1.96816 -7.8549,3.45266 -7.9866,3.29889 -0.1317,-0.15378 0.3912,-2.30459 1.1621,-4.77959 2.783,-8.93501 15.8121,-15.45954 30.9245,-15.48591 7.196,-0.0126 8.5364,0.29256 12.3384,2.80859 12.322,8.15433 11.1131,28.95746 -3.1252,53.77738 -2.0824,3.63004 -3.7862,6.82854 -3.7862,7.10778 0,0.27924 3.1663,0.54219 7.0362,0.58432 19.9185,0.21687 26.3385,8.96974 21.0562,28.70784 -6.4146,23.96921 -22.2423,51.41767 -40.0924,69.52856 -13.8242,14.02611 -27.4637,22.81966 -44.5,28.68963 -9.3864,3.23414 -10.9511,3.46927 -25.5,3.83183 -12.6994,0.31648 -17.0929,0.0348 -24.31606,-1.55916 z m 66.50736,-100.76422 c 10.2474,-5.95587 15.7533,-9.78574 15.7803,-10.97664 0.036,-1.57905 0.6902,-1.72381 -7.4716,1.65285 -13.3395,5.51871 -13.7367,5.75469 -15.0857,8.96317 -1.178,2.80165 -1.1373,3.1315 0.384,3.11062 0.9359,-0.0128 3.8128,-1.25035 6.393,-2.75 z m 62.2647,75.74636 c -4.0377,-1.49364 -4.962,-3.85583 -4.8434,-12.37814 0.1932,-13.88285 6.935,-34.70455 16.6116,-51.30391 7.6177,-13.06752 20.8447,-25.80956 28.839,-27.78169 3.4253,-0.84499 7.3188,2.30529 7.483,6.05455 0.1119,2.55726 0.4637,2.80831 4.02,2.86933 2.9024,0.0498 3.9857,0.51978 4.2435,1.84099 0.1904,0.97578 -1.694,6.82578 -4.1875,13 -9.1014,22.53556 -15.6222,43.51577 -15.6222,50.26339 0,1.76967 0.7202,3.81534 1.6005,4.54593 1.3552,1.1247 2.3134,0.95184 6.25,-1.12755 3.4573,-1.82619 6.5568,-4.95402 11.9697,-12.19862 6.5303,-8.74013 7.5777,-10.71203 9.7798,-19 2.809,-10.5717 10.5632,-33.07555 13.6994,-39.75728 3.4297,-7.30729 5.3533,-9.01702 8.7951,-7.81721 3.3315,1.16138 3.4821,1.80153 1.3798,5.86687 -2.3474,4.53942 -0.2163,3.53228 6.2872,-2.97118 6.9248,-6.92481 13.5788,-11.36648 20.4438,-13.64667 4.6152,-1.53293 5.0338,-1.52543 6.855,0.12278 4.3177,3.90749 1.1462,24.13142 -5.9758,38.10576 -1.6368,3.21181 -5.2772,8.31465 -8.0897,11.33965 l -5.1136,5.5 0.6585,6 c 0.3622,3.3 1.2823,8.7 2.0446,12 0.7624,3.3 1.3928,7.0125 1.4009,8.25 0.045,6.78462 -4.9916,-2.83825 -7.6309,-14.5807 -1.0099,-4.49311 -2.2902,-8.16443 -2.8452,-8.15847 -0.555,0.006 -3.11,0.6484 -5.6777,1.42766 -7.0727,2.14644 -11.8314,0.43896 -11.8314,-4.24521 0,-6.84592 8.0671,-16.5752 15.882,-19.15435 4.3841,-1.44686 5.8286,-0.93038 7.1549,2.55821 0.5025,1.32157 1.2881,2.40286 1.7457,2.40286 1.4533,0 9.0718,-15.34365 10.6753,-21.49983 1.8816,-7.22395 1.91,-8.61471 0.2231,-10.92172 -1.2646,-1.72947 -1.4872,-1.71796 -5.4024,0.27943 -6.3748,3.25216 -20.7186,17.47136 -25.7171,25.49361 -4.6405,7.44769 -8.6891,16.23489 -17.5763,38.14851 -8.0806,19.92455 -8.2726,20.32269 -8.6801,18 -0.193,-1.1 0.3026,-4.475 1.1014,-7.5 1.8076,-6.84568 0.4669,-8.63234 -2.3436,-3.12325 -3.193,6.25863 -11.822,14.54212 -17.2928,16.60023 -4.4433,1.67154 -4.8853,1.67754 -7.2946,0.0989 -3.1013,-2.03203 -4.4606,-5.30728 -4.5201,-10.89098 -0.044,-4.177 -0.048,-4.18057 -1.75,-1.89018 -0.938,1.26209 -3.6357,4.74102 -5.9948,7.73095 -6.0879,7.71549 -16.0256,13.1967 -20.7546,11.44733 z m 9.549,-7.973 c 2.7818,0 15.1191,-14.50926 19.4094,-22.82621 0.9437,-1.82942 3.5294,-9.02942 5.7461,-16 2.2167,-6.97058 4.7528,-14.21867 5.6358,-16.10685 1.2059,-2.57897 1.3019,-3.53419 0.3858,-3.83956 -0.8803,-0.29344 -1.0407,-2.1516 -0.5766,-6.68117 0.7358,-7.18174 -0.1085,-8.37169 -4.3747,-6.16559 -7.5136,3.88544 -16.3248,16.38673 -22.991,32.61938 -3.8118,9.28218 -9.2362,29.27511 -9.2383,34.05 0,3.883 1.6707,6.28977 3.8021,5.47186 0.748,-0.28702 1.7386,-0.52186 2.2014,-0.52186 z m 85.2347,-45.25 c 1.9532,-1.50529 2.6869,-4.89228 1.1751,-5.42466 -1.3947,-0.49114 -6.5585,4.6331 -5.8402,5.79541 0.7712,1.24775 2.7712,1.0888 4.6651,-0.37075 z"
           id="path27"
           sodipodi:nodetypes="ssssssssssssssssssssssssssssssssssssssssssssssssssssssssscssssssssscsssssssssssssssssssssssssssssssssssssssssssssssssssssssssssssssssssssssscsssssssssssscsssssssscssscssssssssssssssssssssssssssssccssssssssssssssssssssssssssscsscssssssssssssssssscssssssssssscssssss" /></g></g></g></svg>
